<svg width="154" height="38" viewBox="0 0 154 38" fill="none" xmlns="http://www.w3.org/2000/svg">
  <rect x="1" y="1" width="152" height="36" rx="18" fill="#0D1117" stroke="#58A6FF" stroke-opacity="0.72"/>
  <g transform="translate(15 11)" fill="#58A6FF">
    <path d="M12 0H4a2 2 0 0 0-2 2v12a2 2 0 0 0 2 2h8a2 2 0 0 0 2-2V2a2 2 0 0 0-2-2M6.646 5.646a.5.5 0 1 1 .708.708L5.707 8l1.647 1.646a.5.5 0 0 1-.708.708l-2-2a.5.5 0 0 1 0-.708zm2.708 0 2 2a.5.5 0 0 1 0 .708l-2 2a.5.5 0 0 1-.708-.708L10.293 8 8.646 6.354a.5.5 0 1 1 .708-.708"/>
  </g>
  <text x="43" y="24" fill="#E7E7E7" font-family="Arial, Helvetica, sans-serif" font-size="12" font-weight="700" letter-spacing="2">PROJECTS</text>
</svg>
